<?xml version="1.0" encoding="utf-8"?>
<!-- Svg Vector Icons : http://www.onlinewebfonts.com/icon -->
<!DOCTYPE svg PUBLIC "-//W3C//DTD SVG 1.1//EN" "http://www.w3.org/Graphics/SVG/1.1/DTD/svg11.dtd">
<svg version="1.1" xmlns="http://www.w3.org/2000/svg" xmlns:xlink="http://www.w3.org/1999/xlink" x="0px" y="0px" viewBox="57 20 190 190" enable-background="new 0 0 256 256" xml:space="preserve">
<metadata> Svg Vector Icons : http://www.onlinewebfonts.com/icon </metadata>
<g><g><path fill="#10b981" d="M159.3,136.1c47.3,1.1,86.1-18.7,86.7-44.1c0.6-25.4-37.3-46.8-84.6-47.8c-47.3-1-86.2,18.7-86.7,44.1C74.1,113.6,111.9,135.1,159.3,136.1z M147.5,118.9c-7,4.9-20.2,5.8-29.6,1.9c-9.3-3.9-11.3-11-4.3-15.9c7-4.9,20.2-5.8,29.6-1.9C152.5,106.9,154.4,114,147.5,118.9z M200.9,122.6c-9.5,3.5-22.7,2-29.5-3.2c-6.7-5.2-4.5-12.3,5-15.7c9.5-3.5,22.7-2,29.5,3.2C212.7,112.1,210.4,119.2,200.9,122.6z M201.1,73c11.1-1.7,23,1.8,26.5,7.9c3.5,6-2.7,12.3-13.9,14c-11.2,1.7-23-1.8-26.5-7.9C183.7,80.9,190,74.7,201.1,73z M161.1,53.2c11.7,0.3,21,5.5,20.9,11.8c-0.1,6.3-9.7,11.1-21.4,10.9c-11.7-0.3-21-5.6-20.9-11.8C139.8,57.8,149.4,52.9,161.1,53.2z M93.3,77.8c3.7-5.9,15.7-8.9,26.8-6.7c11.1,2.2,17,8.7,13.2,14.6c-3.7,5.9-15.7,8.9-26.8,6.7C95.5,90.2,89.5,83.7,93.3,77.8z M155.4,148.2c-52.6-3.3-120.1-43-144.2,12.8l-0.3,12.9c7.7-18.3,16.1-24.8,22.9-27.5L33.2,178c-8.2,3.4-18.8,13.1-23,24.9l-0.2,9c24.1-55.9,91.6-16.1,144.2-12.8c52.6,3.3,86-21,86-21l0.1-4.8h0l0.9-39l0,0l0.1-7C241.3,127.2,208,151.5,155.4,148.2z M75.2,174.3c-11.1-1.6-21.8-2.2-31.6-0.5l0.8-30.3c9.8-3.1,20.3-1.4,31.5,0L75.2,174.3z M131.4,186.1c-14.6-2.8-29.7-6.8-44.4-9.8l0.7-30.9c14.6,3,29.7,7.5,44.4,10.7L131.4,186.1z M187.8,187.1c-9.9,1.7-20.8,2.6-32.7,2.1c-3.9-0.2-7.9-0.6-12-1.2l0.7-29.8c4,0.6,7.9,1,11.8,1.2c11.9,0.6,22.9-0.3,32.8-1.9L187.8,187.1z M231.3,172.8c-7.4,3.8-18.1,8.4-31.6,11.8l0.7-29.4c13.3-3.1,24.1-7.3,31.6-10.8L231.3,172.8z"/></g></g>
</svg>